<svg xmlns="http://www.w3.org/2000/svg" viewBox="0 0 512 512">
  <rect width="512" height="512" rx="100" fill="#065f46"/>
  <path d="M256 64c-106 0-192 86-192 192s86 192 192 192 192-86 192-192S362 64 256 64zm0 344c-84 0-152-68-152-152s68-152 152-152 152 68 152 152-68 152-152 152z" fill="#fbbf24"/>
  <path d="M256 128c-70.7 0-128 57.3-128 128s57.3 128 128 128 128-57.3 128-128-57.3-128-128-128zm0 216c-48.6 0-88-39.4-88-88s39.4-88 88-88 88 39.4 88 88-39.4 88-88 88z" fill="#065f46"/>
  <path d="M320 256c0 35.3-28.7 64-64 64s-64-28.7-64-64 28.7-64 64-64 64 28.7 64 64z" fill="#fbbf24"/>
  <path d="M256 192l15 45h47l-38 28 15 45-39-28-39 28 15-45-38-28h47z" fill="#ffffff"/>
</svg>
