<svg xmlns="http://www.w3.org/2000/svg" viewBox="0 0 100 100">
  <rect width="100" height="100" fill="#fff1f2" rx="20"/>
  <!-- Face -->
  <circle cx="50" cy="45" r="18" fill="#fecaca"/>
  <!-- Hijab -->
  <path d="M30 45 Q30 20 50 20 Q70 20 70 45 Q70 70 50 70 Q30 70 30 45" fill="#881337"/>
  <!-- Inner Hijab/Face opening -->
  <path d="M35 45 Q35 28 50 28 Q65 28 65 45 Q65 62 50 62 Q35 62 35 45" fill="#fecaca"/>
  <!-- Dress -->
  <path d="M20 100 Q20 70 50 70 Q80 70 80 100 Z" fill="#881337"/>
  <!-- Face details -->
  <path d="M45 50 Q50 54 55 50" fill="none" stroke="#4c0519" stroke-width="1" stroke-linecap="round"/>
  <circle cx="44" cy="44" r="1.5" fill="#4c0519"/>
  <circle cx="56" cy="44" r="1.5" fill="#4c0519"/>
</svg>
